PathFileType  4	(X/Y/Z) C:\Users\antoi\Documents\MyRepositories\mobilecap\ResultsAnalysis
DataRate	CameraRate	NumFrames	NumMarkers	Units	OrigDataRate	OrigDataStartFrame	OrigNumFrames
100.0	100.0	7	51	mm	100.0	170	271
Frame#	Time	r_knee			r_shank_antsup			r_ankle			r_calc			r_5meta			r_toe			L_knee			L_shank_antsup			L_ankle			L_calc			L_5meta			L_toe			r_sh2			r_sh3			r_sh4			L_sh2			L_sh3			r_thigh1			r_thigh2			r_thigh3			r_thigh4			r_thigh5			L_thigh1			L_thigh2			L_thigh3			L_thigh4			r.ASIS			r.PSIS			L.ASIS			L.PSIS			C7			R_Shoulder			L_Shoulder			R_Sternum			L_Sternum			R_humerus			R_elbow_med			R_elbow_lat			R_forearm			R_wrist_radius			R_wrist_ulna			L_humerus			L_elbow_med			L_elbow_lat			L_forearm			L_wrist_radius			L_wrist_ulna			R_HJC			L_HJC			R_HJC_reg			L_HJC_reg			
		X1	Y1	Z1	X2	Y2	Z2	X3	Y3	Z3	X4	Y4	Z4	X5	Y5	Z5	X6	Y6	Z6	X7	Y7	Z7	X8	Y8	Z8	X9	Y9	Z9	X10	Y10	Z10	X11	Y11	Z11	X12	Y12	Z12	X13	Y13	Z13	X14	Y14	Z14	X15	Y15	Z15	X16	Y16	Z16	X17	Y17	Z17	X18	Y18	Z18	X19	Y19	Z19	X20	Y20	Z20	X21	Y21	Z21	X22	Y22	Z22	X23	Y23	Z23	X24	Y24	Z24	X25	Y25	Z25	X26	Y26	Z26	X27	Y27	Z27	X28	Y28	Z28	X29	Y29	Z29	X30	Y30	Z30	X31	Y31	Z31	X32	Y32	Z32	X33	Y33	Z33	X34	Y34	Z34	X35	Y35	Z35	X36	Y36	Z36	X37	Y37	Z37	X38	Y38	Z38	X39	Y39	Z39	X40	Y40	Z40	X41	Y41	Z41	X42	Y42	Z42	X43	Y43	Z43	X44	Y44	Z44	X45	Y45	Z45	X46	Y46	Z46	X47	Y47	Z47	X48	Y48	Z48	X49	Y49	Z49	X50	Y50	Z50	X51	Y51	Z51	

170	1.69000000	-122.28704	423.83320	-364.60518	-150.00772	396.88201	-338.37051	-324.38002	99.40093	-401.03249	-394.42544	62.24776	-456.77102	-226.65855	38.99867	-344.63402	-174.92067	55.71219	-392.28641	-109.03647	410.05237	-794.97842	-99.27119	332.40746	-803.14600	-313.70966	100.06144	-763.71134	-391.51233	63.26691	-716.47916	-215.28409	39.95057	-799.42954	-165.23375	55.29131	-746.61001	-205.31214	293.04049	-339.29443	-81.15797	365.63740	-359.00998	-136.26395	266.45113	-380.70727	-170.51456	385.91159	-810.11015	-236.61386	278.56489	-799.18028	-341.02421	576.57601	-481.38393	-236.98143	559.39653	-448.82536	-236.04084	542.71753	-383.85635	-376.00074	544.63189	-381.63170	-271.78376	511.01932	-355.13089	-370.25422	551.73501	-772.77047	-246.47728	488.58452	-801.24617	-420.92311	447.00922	-775.75499	-296.51786	388.41560	-762.10439	-374.97799	610.54726	-466.61969	-548.83382	657.70344	-558.43854	-359.47868	577.42459	-693.53755	-542.63094	652.22924	-650.96834	-214.36641	1027.93101	-606.01960	-171.39145	963.71743	-448.52378	-165.96570	938.37159	-755.03222	-170.61923	890.09563	-580.72662	-170.37416	882.03329	-607.95082	-270.69591	793.09370	-304.58521	-365.41552	721.28845	-302.33014	-323.15261	733.49562	-248.98856	-241.44087	611.37536	-242.55710	-193.26508	522.43282	-265.64406	-205.88861	517.78114	-222.26686	-306.20669	768.27106	-864.13562	-412.44551	709.60023	-837.54675	-389.44545	709.32833	-895.37855	-385.15702	562.45508	-920.32384	-378.49266	455.05729	-909.71974	-420.47950	458.68074	-922.54857	-455.66541	535.33670	-495.29367	-453.14540	521.95144	-685.47330	-448.35611	537.64784	-498.70828	-438.21907	528.71557	-649.80392	
171	1.70000000	-120.26451	420.34068	-360.65642	-147.86548	393.81796	-334.87056	-324.11593	99.39768	-401.21713	-393.91759	62.72713	-456.84224	-226.66046	38.92263	-344.48196	-174.74187	55.62899	-392.10380	-105.03764	406.89480	-794.07175	-97.01822	330.62874	-804.42127	-313.29689	100.58258	-763.69449	-391.13372	63.90051	-716.22230	-215.22849	39.92415	-799.38694	-164.99715	55.14744	-746.74838	-204.33337	291.69699	-336.67331	-79.63648	363.02002	-355.59525	-134.76487	264.63912	-378.30783	-167.93084	384.54355	-811.30128	-235.36983	276.83321	-798.24757	-339.90910	569.53388	-479.74203	-236.31547	554.37490	-445.14137	-236.01324	536.83553	-380.81688	-376.25806	537.12018	-380.25826	-270.60377	503.82069	-353.59941	-368.73863	542.08069	-773.86149	-244.27665	481.28830	-802.79269	-418.97577	436.63105	-776.82721	-291.24726	381.28704	-763.79359	-372.27688	601.29079	-464.48802	-545.39507	647.94775	-559.43581	-354.76717	569.37658	-693.85853	-538.50185	643.11968	-652.10282	-204.51799	1013.27392	-606.76318	-163.48965	949.23096	-448.33844	-156.50435	921.33547	-755.14526	-163.15278	874.55301	-580.79850	-162.25165	866.86308	-606.52146	-264.76451	778.59981	-305.41188	-361.13429	710.01332	-303.11722	-319.00594	719.82814	-249.88015	-250.26072	589.60847	-238.60100	-211.94367	494.49116	-258.34624	-225.85466	492.98886	-215.05112	-299.91183	752.63030	-862.91832	-408.50442	699.17673	-836.49890	-384.86643	697.13213	-893.97601	-394.01983	551.43551	-921.08999	-397.60464	443.22866	-912.45689	-438.95144	451.26738	-924.89472	-452.49166	525.76814	-495.85548	-447.97287	513.43458	-686.07360	-445.15157	527.36750	-497.93768	-433.79882	519.41263	-650.58901	
172	1.71000000	-118.97400	417.34590	-356.23749	-145.91413	390.72073	-331.43461	-323.89856	99.41452	-401.22889	-393.51738	63.19625	-457.01575	-226.68888	38.84743	-344.37530	-174.60967	55.51658	-391.94644	-101.36395	404.28215	-792.96199	-94.54490	329.11266	-805.03681	-312.83191	101.03287	-763.65546	-390.72904	64.55481	-715.87942	-215.13490	39.90535	-799.27326	-164.71091	54.97004	-746.88160	-202.74305	289.68502	-334.68906	-78.27722	360.50869	-352.35118	-133.49155	262.76906	-375.74114	-165.22252	383.33182	-812.15249	-234.03934	275.24055	-796.98489	-338.78629	562.74087	-478.06471	-234.67069	549.81322	-441.10789	-235.59053	531.10164	-377.22903	-376.34200	529.44680	-379.09443	-270.23108	496.50587	-351.42271	-366.35901	534.80129	-774.38228	-241.21736	476.19775	-803.42546	-416.05932	428.82046	-779.10481	-287.09852	375.08655	-765.12318	-369.38495	592.37225	-463.29603	-541.88507	639.21258	-559.64485	-350.80998	561.25641	-694.85364	-534.63407	634.81693	-653.30044	-195.28440	999.77318	-607.18434	-156.04605	935.58804	-448.02004	-147.79240	905.77995	-755.10450	-155.93131	860.41937	-580.84362	-154.83005	852.56633	-606.48636	-259.26602	764.73739	-306.21860	-357.48121	699.41823	-303.95646	-315.57784	707.07346	-251.06475	-260.46620	570.17897	-235.05549	-232.08686	470.95228	-251.33665	-247.19956	472.17984	-208.91545	-294.26075	738.41159	-861.78754	-404.56170	689.43929	-834.89467	-380.50773	685.71573	-891.90490	-401.49548	542.60743	-921.71719	-415.05024	434.55152	-915.11542	-455.41933	446.72868	-927.24349	-449.38998	516.82530	-496.55279	-443.92572	505.32831	-686.80079	-442.11671	517.77032	-497.66069	-430.19238	510.53560	-651.71866	
173	1.72000000	-117.36784	414.63060	-352.91055	-144.61678	388.55109	-328.53606	-323.74997	99.41464	-401.15754	-393.44370	63.60497	-457.27320	-226.71686	38.79688	-344.29877	-174.55329	55.40067	-391.77958	-98.32114	402.25711	-793.07117	-91.89801	327.38584	-804.76797	-312.38921	101.36775	-763.45115	-390.35721	65.09026	-715.54276	-215.05285	39.89406	-799.17904	-164.44144	54.77314	-746.91984	-201.34527	287.28463	-333.69698	-76.88423	358.41678	-348.87962	-132.63604	260.91895	-373.24682	-162.26057	382.05344	-812.93520	-231.88801	274.00842	-796.44243	-337.35846	556.11838	-476.88906	-232.06088	545.91067	-437.68722	-234.08207	526.04018	-374.01430	-375.55640	522.18166	-378.46969	-269.86381	490.19770	-349.50285	-362.89566	529.89117	-774.12995	-237.58041	472.90035	-803.66535	-412.52273	423.74403	-781.82314	-283.54491	370.55906	-767.51277	-366.48175	583.95359	-463.25588	-538.44219	631.42458	-559.48472	-347.66104	553.19689	-695.76552	-531.17708	627.28694	-653.93055	-186.60912	987.51072	-607.18657	-148.88275	922.75364	-447.49914	-139.88418	891.72441	-755.10361	-149.04938	847.61266	-580.60645	-148.12946	839.35174	-606.62092	-254.59209	751.63357	-306.97963	-354.34881	689.74658	-305.08869	-312.65446	695.00175	-252.66870	-271.41527	553.44832	-232.25977	-253.13505	451.74024	-245.13633	-268.87235	455.39674	-203.51840	-289.36829	725.56445	-860.43331	-400.51330	680.40842	-832.81933	-376.42634	675.14706	-889.23939	-407.30008	535.44461	-922.02650	-430.49625	428.63769	-917.66662	-469.46136	444.55968	-929.73578	-446.48372	508.62068	-497.12955	-440.97056	497.61512	-687.40334	-439.25537	509.20156	-497.95483	-427.35550	502.42574	-652.64037	
174	1.73000000	-115.09790	411.93221	-350.81935	-143.30128	386.66497	-326.31535	-323.58687	99.42603	-401.26426	-393.42029	63.77215	-457.65110	-226.73116	38.78043	-344.25620	-174.54267	55.30326	-391.63298	-95.14135	400.71194	-793.24407	-89.22270	325.54826	-804.05064	-311.98415	101.71720	-763.18301	-390.05249	65.55272	-715.34554	-215.00456	39.87416	-799.16715	-164.22640	54.58385	-746.90587	-200.54737	285.09527	-333.21210	-75.42228	356.29683	-346.07145	-131.78518	258.94238	-371.59976	-159.23365	380.64789	-813.39946	-229.30104	273.03525	-796.41733	-335.61468	550.08333	-476.71327	-229.56209	542.13288	-435.86619	-232.24565	521.86296	-372.32799	-373.81960	516.34145	-378.43044	-268.62777	485.29625	-348.87418	-358.98681	526.19620	-773.68374	-233.92580	470.52329	-803.42641	-409.14436	420.39385	-784.35685	-280.18344	367.42622	-769.90296	-363.62059	576.60609	-463.60631	-535.15598	624.55315	-559.23111	-344.94688	545.80892	-696.12557	-528.07354	620.53381	-653.84705	-178.50239	976.64003	-606.92385	-141.91093	910.72456	-446.73134	-132.81599	879.29851	-755.09844	-142.55910	836.24160	-580.32309	-141.76526	827.77214	-606.27536	-250.78535	739.33862	-307.87775	-351.71872	680.98055	-306.81550	-310.36286	683.63039	-254.64219	-282.50852	539.58364	-230.81423	-274.87356	436.07706	-240.49113	-290.08822	442.43208	-198.89626	-285.10422	713.96121	-858.56058	-396.51806	671.99548	-830.29625	-372.51115	665.62752	-886.32508	-411.68130	529.50757	-921.77583	-443.69516	424.79649	-920.08165	-481.03445	444.08561	-932.16246	-443.65626	501.46798	-497.28294	-438.46165	490.57177	-687.57209	-436.40577	501.91155	-498.23475	-424.82402	495.34019	-652.95545	
175	1.74000000	-112.58261	409.79120	-349.31889	-141.22008	384.72488	-324.68320	-323.30305	99.48838	-401.64726	-393.21067	63.77594	-458.02699	-226.73216	38.78098	-344.23741	-174.49792	55.20771	-391.54872	-91.40433	398.94669	-791.85458	-86.64520	323.82912	-803.36245	-311.63267	102.09740	-762.93622	-389.82679	66.01521	-715.29249	-214.96546	39.83134	-799.13323	-164.06455	54.42337	-746.91925	-199.59151	283.37578	-332.72860	-73.67692	354.03533	-344.80845	-130.50704	257.08156	-371.00193	-156.34122	379.21364	-813.28050	-227.21627	271.91509	-795.79535	-333.67814	544.81518	-477.72772	-227.69217	538.13953	-435.85541	-230.48432	518.56901	-372.58756	-371.57454	512.12829	-378.86592	-266.78094	481.80351	-349.00368	-356.82810	521.74347	-772.94316	-230.63974	468.21241	-802.57779	-405.93745	417.32346	-786.05301	-277.00488	364.90901	-771.04137	-360.77631	570.41430	-464.25300	-532.10103	618.71294	-558.88982	-342.60214	539.11225	-695.99036	-525.28910	614.61022	-653.32364	-171.04834	967.21165	-606.51080	-135.20921	899.47882	-445.79065	-126.52218	868.67637	-755.02674	-136.45623	826.22183	-580.08356	-135.75346	817.70558	-605.98122	-247.60335	727.81398	-309.01792	-349.63415	672.95167	-309.13115	-308.88467	673.11557	-256.96572	-293.35901	528.17467	-230.59114	-296.46946	423.75275	-237.06060	-310.47828	432.90817	-195.63908	-281.17091	703.79109	-856.30104	-392.65957	664.21442	-827.33111	-368.66521	657.30195	-883.35269	-415.04172	524.67076	-920.80413	-454.52558	422.66115	-922.36725	-490.25203	444.82954	-934.20679	-440.94567	495.46203	-497.04730	-436.34912	484.24286	-687.33242	-433.64363	495.96074	-498.47831	-422.51636	489.25907	-652.73351	
176	1.75000000	-109.97677	408.05371	-348.78661	-138.51107	383.02875	-323.86186	-322.94948	99.54960	-402.14388	-392.96971	63.84281	-458.17686	-226.72523	38.78882	-344.23537	-174.40495	55.10580	-391.52943	-87.79624	396.67140	-789.84842	-84.30280	322.24752	-802.68261	-311.30483	102.44934	-762.63673	-389.61968	66.50742	-715.27343	-214.91009	39.79167	-798.95156	-163.91926	54.29122	-746.95137	-197.91343	282.01708	-332.38690	-71.45773	351.98655	-344.91966	-128.89560	255.58919	-371.26045	-153.65851	378.04545	-812.78140	-225.30547	271.16751	-795.07039	-331.71269	540.47410	-479.23874	-226.37100	534.20145	-437.60391	-228.49096	516.10562	-374.03947	-369.25314	509.24228	-379.71189	-264.73769	479.69508	-349.06131	-357.34159	515.58415	-770.70579	-227.79880	465.50861	-801.67833	-402.90745	413.46357	-786.33085	-273.94890	362.22029	-771.03161	-357.85249	565.18945	-465.29829	-529.23527	614.05076	-558.67102	-340.55016	533.06841	-695.50752	-522.69054	609.69438	-652.64892	-164.29049	959.02401	-605.79456	-128.90530	889.17127	-444.71918	-120.79875	859.92536	-754.99238	-130.82345	817.37354	-579.74472	-130.18801	808.95563	-605.86306	-244.84890	717.07788	-310.42309	-347.99325	665.60536	-312.03411	-308.08522	663.52083	-259.72754	-303.79492	518.67178	-230.85745	-317.17368	414.52488	-234.75765	-329.83165	426.27920	-193.91677	-277.40622	695.42947	-854.14957	-388.68410	657.44970	-824.07335	-365.02589	650.34105	-880.31167	-417.52078	521.30753	-919.59253	-462.93563	421.97401	-924.32524	-497.25768	446.58944	-935.52672	-438.42642	490.57327	-496.66292	-434.63167	478.70272	-686.92549	-431.05927	491.30044	-498.91076	-420.38322	484.19391	-652.20999	
